<svg width="66" height="66" viewBox="0 0 66 66" fill="none" xmlns="http://www.w3.org/2000/svg">
<g clip-path="url(#clip0_187_13)">
<g filter="url(#filter0_d_187_13)">
<circle cx="33" cy="33" r="33" fill="url(#paint0_linear_187_13)"/>
</g>
<path d="M34.7071 33.7071C35.0976 33.3166 35.0976 32.6834 34.7071 32.2929L28.3431 25.9289C27.9526 25.5384 27.3195 25.5384 26.9289 25.9289C26.5384 26.3195 26.5384 26.9526 26.9289 27.3431L32.5858 33L26.9289 38.6569C26.5384 39.0474 26.5384 39.6805 26.9289 40.0711C27.3195 40.4616 27.9526 40.4616 28.3431 40.0711L34.7071 33.7071ZM13 34H34V32H13V34Z" fill="white"/>
</g>
<defs>
<filter id="filter0_d_187_13" x="-4" y="-4" width="74" height="74" filterUnits="userSpaceOnUse" color-interpolation-filters="sRGB">
<feFlood flood-opacity="0" result="BackgroundImageFix"/>
<feColorMatrix in="SourceAlpha" type="matrix" values="0 0 0 0 0 0 0 0 0 0 0 0 0 0 0 0 0 0 127 0" result="hardAlpha"/>
<feOffset/>
<feGaussianBlur stdDeviation="2"/>
<feComposite in2="hardAlpha" operator="out"/>
<feColorMatrix type="matrix" values="0 0 0 0 0 0 0 0 0 0 0 0 0 0 0 0 0 0 0.25 0"/>
<feBlend mode="normal" in2="BackgroundImageFix" result="effect1_dropShadow_187_13"/>
<feBlend mode="normal" in="SourceGraphic" in2="effect1_dropShadow_187_13" result="shape"/>
</filter>
<linearGradient id="paint0_linear_187_13" x1="16.5" y1="5" x2="49.5" y2="66" gradientUnits="userSpaceOnUse">
<stop stop-color="#2073EF"/>
<stop offset="1" stop-color="#003882"/>
</linearGradient>
<clipPath id="clip0_187_13">
<rect width="66" height="66" fill="white"/>
</clipPath>
</defs>
</svg>
