<svg width="66" height="66" viewBox="0 0 66 66" fill="none" xmlns="http://www.w3.org/2000/svg">
<g clip-path="url(#clip0_187_14)">
<circle cx="33" cy="33" r="33" fill="url(#paint0_linear_187_14)"/>
<path d="M52.7071 33.7071C53.0976 33.3166 53.0976 32.6834 52.7071 32.2929L46.3431 25.9289C45.9526 25.5384 45.3195 25.5384 44.9289 25.9289C44.5384 26.3195 44.5384 26.9526 44.9289 27.3431L50.5858 33L44.9289 38.6569C44.5384 39.0474 44.5384 39.6805 44.9289 40.0711C45.3195 40.4616 45.9526 40.4616 46.3431 40.0711L52.7071 33.7071ZM36 34L52 34V32L36 32V34Z" fill="white"/>
<path d="M17 33H19" stroke="white" stroke-width="2" stroke-linecap="round"/>
<path d="M23 33H25" stroke="white" stroke-width="2" stroke-linecap="round"/>
<path d="M29 33H31" stroke="white" stroke-width="2" stroke-linecap="round"/>
</g>
<defs>
<linearGradient id="paint0_linear_187_14" x1="16.5" y1="5" x2="49.5" y2="66" gradientUnits="userSpaceOnUse">
<stop stop-color="#2073EF"/>
<stop offset="1" stop-color="#003882"/>
</linearGradient>
<clipPath id="clip0_187_14">
<rect width="66" height="66" fill="white"/>
</clipPath>
</defs>
</svg>
