<svg width="39" height="67" viewBox="0 0 39 67" fill="none" xmlns="http://www.w3.org/2000/svg">
<mask id="mask0_140_921" style="mask-type:luminance" maskUnits="userSpaceOnUse" x="0" y="0" width="39" height="64">
<path d="M0 0H39V63.3333H0V0Z" fill="white"/>
</mask>
<g mask="url(#mask0_140_921)">
<path fill-rule="evenodd" clip-rule="evenodd" d="M34.8104 63.2404H4.17589C1.88422 63.2404 0.0205078 61.3802 0.0205078 59.0937V4.14756C0.0205078 1.8611 1.88422 0.000854492 4.17589 0.000854492H34.8104C37.1021 0.000854492 38.9658 1.8611 38.9658 4.14756V59.0946C38.9658 61.3802 37.1021 63.2404 34.8104 63.2404ZM4.17589 2.08419C3.03526 2.08419 2.10818 3.00954 2.10818 4.14756V59.0946C2.10818 60.2326 3.03526 61.158 4.17589 61.158H34.8104C35.9511 61.158 36.8781 60.2326 36.8781 59.0946V4.14756C36.8781 3.00954 35.9511 2.08419 34.8104 2.08419H4.17589Z" fill="black"/>
</g>
<path fill-rule="evenodd" clip-rule="evenodd" d="M7.71153 19.494H6.51535C5.40945 19.494 4.50928 18.5964 4.50928 17.4923V9.25528C4.50928 8.15198 5.40945 7.25354 6.51535 7.25354H7.71153C8.81744 7.25354 9.71761 8.15198 9.71761 9.25528V17.4923C9.71761 18.5964 8.81744 19.494 7.71153 19.494ZM6.59695 17.4107H7.62994V9.33687H6.59695V17.4107Z" fill="black"/>
<path fill-rule="evenodd" clip-rule="evenodd" d="M7.82433 40.2787H6.44065C5.33474 40.2787 4.43457 39.3803 4.43457 38.277V27.6147C4.43457 26.5105 5.33474 25.6129 6.44065 25.6129L7.82433 25.6121C8.93023 25.6121 9.8304 26.5105 9.8304 27.6138V38.2761C9.83127 39.3803 8.93023 40.2787 7.82433 40.2787ZM6.52224 38.1954H7.74273V27.6954H6.52224V38.1954Z" fill="black"/>
<mask id="mask1_140_921" style="mask-type:luminance" maskUnits="userSpaceOnUse" x="0" y="21" width="39" height="3">
<path d="M0 21.3333H39V23.7777H0V21.3333Z" fill="white"/>
</mask>
<g mask="url(#mask1_140_921)">
<path fill-rule="evenodd" clip-rule="evenodd" d="M37.9216 23.5947H1.06391C0.487522 23.5947 0.0205078 23.1285 0.0205078 22.553C0.0205078 21.9775 0.487522 21.5114 1.06391 21.5114H37.9216C38.4979 21.5114 38.9658 21.9775 38.9658 22.553C38.9658 23.1285 38.4979 23.5947 37.9216 23.5947Z" fill="black"/>
</g>
<path fill-rule="evenodd" clip-rule="evenodd" d="M13.6665 66.6658H7.59097C7.18211 66.6658 6.80972 66.4271 6.64044 66.0538L5.08576 62.6293C4.93906 62.3073 4.96597 61.9323 5.15867 61.6354C5.35138 61.3376 5.68124 61.158 6.03628 61.158H15.222C15.5771 61.158 15.9078 61.3376 16.0996 61.6354C16.2924 61.9323 16.3193 62.3073 16.1734 62.6293L14.6179 66.0547C14.4477 66.4271 14.0762 66.6658 13.6665 66.6658ZM8.26458 64.5824H12.9929L13.6031 63.2413H7.6552L8.26458 64.5824Z" fill="black"/>
<path fill-rule="evenodd" clip-rule="evenodd" d="M31.3949 66.6658H25.3194C24.9097 66.6658 24.5382 66.4271 24.3689 66.0538L22.8125 62.6293C22.6658 62.3073 22.6935 61.9323 22.8863 61.6354C23.079 61.3376 23.4088 61.158 23.7639 61.158H32.9496C33.3047 61.158 33.6354 61.3376 33.8272 61.6354C34.0199 61.9323 34.0468 62.3073 33.9001 62.6293L32.3455 66.0547C32.1762 66.4271 31.8047 66.6658 31.3949 66.6658ZM25.9922 64.5824H30.7213L31.3307 63.2413H25.3837L25.9922 64.5824Z" fill="black"/>
</svg>
