<svg width="45" height="49" viewBox="0 0 45 49" fill="none" xmlns="http://www.w3.org/2000/svg">
<path d="M9.49577 2.7237H20.0046V13.1566H9.49577V2.7237ZM9.0734 14.0026H20.4276C20.6611 14.0026 20.8506 13.8138 20.8506 13.5796V2.30069C20.8506 2.06718 20.6611 1.87769 20.4276 1.87769H9.0734C8.83924 1.87769 8.65039 2.06718 8.65039 2.30069V13.5796C8.65039 13.8138 8.83924 14.0026 9.0734 14.0026Z" fill="#231F20"/>
<path d="M24.6103 2.7237H35.1185V13.1566H24.6103V2.7237ZM24.1867 14.0026H35.5409C35.7751 14.0026 35.9639 13.8138 35.9639 13.5796V2.30069C35.9639 2.06718 35.7751 1.87769 35.5409 1.87769H24.1867C23.9532 1.87769 23.7637 2.06718 23.7637 2.30069V13.5796C23.7637 13.8138 23.9532 14.0026 24.1867 14.0026Z" fill="#231F20"/>
<mask id="mask0_140_958" style="mask-type:luminance" maskUnits="userSpaceOnUse" x="0" y="0" width="45" height="49">
<path d="M0 0H44.4675V49H0V0Z" fill="white"/>
</mask>
<g mask="url(#mask0_140_958)">
<path d="M40.7771 45.2765C40.393 45.6944 39.8609 45.8979 39.1501 45.8979H39.1412C40.5385 44.2882 40.2654 40.6464 39.9202 36.0513C39.7671 34.0077 39.5948 31.707 39.575 29.4402H40.9851C41.0074 31.7396 41.2045 34.0588 41.38 36.119C41.7347 40.2948 42.0416 43.9003 40.7771 45.2765ZM38.7271 48.1539H5.73633V46.7439H38.7271V48.1539ZM5.31333 45.8979C4.60321 45.8979 4.0711 45.6944 3.68701 45.2765C2.42182 43.899 2.7287 40.2897 3.08408 36.1113C3.2589 34.0524 3.45605 31.7351 3.47774 29.4402H4.8884C4.86926 31.6924 4.70338 33.9025 4.5426 36.0443C4.19807 40.6425 3.92436 44.2869 5.32353 45.8979H5.31333ZM5.3867 36.1075C5.54046 34.0499 5.71464 31.7332 5.73378 29.4402H7.14445C7.12786 31.6949 6.9843 33.9063 6.84458 36.0488C6.54598 40.6406 6.308 44.3029 7.53428 45.8979H7.30331C6.74632 45.8979 6.31949 45.7307 6.00047 45.3862C4.78824 44.0795 5.06514 40.3854 5.3867 36.1075ZM7.68868 36.1036C7.82266 34.0467 7.97324 31.7319 7.99046 29.4402H9.40049C9.38581 31.7077 9.25949 34.009 9.14656 36.0532C9.01895 38.375 8.89837 40.5679 8.96089 42.2976C9.02533 44.0604 9.26906 45.1967 9.74183 45.8979H9.29394C8.87348 45.8979 8.55766 45.7703 8.30118 45.4966C7.80033 44.9619 7.52662 43.8582 7.46537 42.1227C7.40603 40.4575 7.54321 38.3431 7.68868 36.1036ZM19.2011 36.0851C19.2318 34.0326 19.2668 31.723 19.2707 29.4402H20.6807C20.6794 31.7192 20.6679 34.0269 20.6577 36.0769C20.6431 38.9333 20.6309 41.3992 20.6462 43.2348C20.6539 44.2129 20.6692 44.9351 20.6928 45.443C20.7011 45.6229 20.71 45.7722 20.7203 45.8979H19.4098C19.3262 45.665 19.1967 44.9645 19.1584 42.8577C19.1265 41.0706 19.1609 38.7604 19.2011 36.0851ZM11.9487 45.8979H11.2846C10.9968 45.8979 10.7748 45.8054 10.5859 45.6057C10.1253 45.1189 9.87071 44.0266 9.80691 42.2669C9.74502 40.5755 9.86497 38.4018 9.99129 36.0998C10.1042 34.0441 10.2318 31.73 10.2465 29.4402H11.6565C11.6444 31.7102 11.541 34.0122 11.4492 36.0583C11.2348 40.8065 11.0753 44.3558 11.9487 45.8979ZM14.1506 45.8979H13.2746C13.1042 45.8979 12.9734 45.8405 12.8503 45.7116C11.9054 44.7233 12.0942 40.5328 12.2939 36.096C12.3864 34.0416 12.4904 31.7281 12.5019 29.4402H13.9126C13.903 31.7122 13.8226 34.016 13.7512 36.0628C13.57 41.2289 13.4953 44.4713 14.1506 45.8979ZM16.3504 45.8979H15.2652C15.216 45.8979 15.1605 45.8871 15.0872 45.8111C14.6654 45.3747 14.5283 43.8218 14.4874 42.5961C14.43 40.8492 14.5104 38.539 14.5965 36.0922C14.668 34.0384 14.749 31.7268 14.7586 29.4402H16.1686C16.1616 31.7147 16.1042 34.0199 16.0531 36.0673C15.9211 41.3373 15.87 44.5153 16.3504 45.8979ZM9.49555 28.5941V15.8829H20.0044V28.5941H9.49555ZM18.3156 43.0115C18.3475 44.5657 18.4304 45.4117 18.5369 45.8979H17.2851C17.2475 45.8571 17.1225 45.6829 17.0153 45.0965C16.9215 44.5823 16.8615 43.8767 16.8309 42.9388C16.7722 41.1466 16.8309 38.8025 16.8991 36.0883C16.9502 34.0358 17.0076 31.7249 17.0146 29.4402H18.4247C18.4208 31.7166 18.3864 34.0231 18.3551 36.0724C18.3143 38.8203 18.2785 41.1938 18.3156 43.0115ZM7.61594 0.844063H21.8087V28.5941H20.8498V15.4598C20.8498 15.2263 20.6603 15.0368 20.4268 15.0368H9.07255C8.83903 15.0368 8.65018 15.2263 8.65018 15.4598V28.5941H7.61594V0.844063ZM22.8965 45.8979H21.5669C21.4604 44.7558 21.482 40.3529 21.5037 36.0813C21.514 34.0301 21.5254 31.7211 21.5267 29.4402H22.9367C22.938 31.7211 22.9495 34.0301 22.9597 36.0813C22.9814 40.3529 23.0031 44.7558 22.8965 45.8979ZM22.6547 0.844063H36.8475V28.5941H35.9638V15.4598C35.9638 15.2263 35.7744 15.0368 35.5415 15.0368H24.1866C23.9531 15.0368 23.7636 15.2263 23.7636 15.4598V28.5941H22.6547V0.844063ZM23.8057 36.0775C23.7955 34.0269 23.784 31.7192 23.7828 29.4402H25.1928C25.1966 31.7236 25.2317 34.0339 25.2623 36.0864C25.3025 38.761 25.337 41.0719 25.3051 42.8584C25.2668 44.9645 25.1373 45.665 25.0543 45.8979H23.7432C23.7528 45.7722 23.7623 45.6229 23.7706 45.443C23.7936 44.9358 23.8095 44.2129 23.8172 43.2348C23.8325 41.3999 23.8204 38.9333 23.8057 36.0775ZM26.1077 36.0737C26.0777 34.0243 26.0433 31.7173 26.0388 29.4402H27.4495C27.4552 31.7255 27.5133 34.0371 27.5643 36.0909C27.6326 38.8044 27.6913 41.1485 27.6332 42.94C27.6019 43.8779 27.542 44.5829 27.4482 45.0972C27.341 45.6835 27.2166 45.8571 27.1783 45.8979H25.9265C26.0331 45.4117 26.116 44.5657 26.1479 43.0121C26.1849 41.1951 26.1492 38.8216 26.1077 36.0737ZM28.4103 36.0698C28.3586 34.0211 28.3012 31.716 28.2948 29.4402H29.7049C29.7144 31.7281 29.7948 34.0409 29.8669 36.096C29.9531 38.5415 30.0334 40.8518 29.9754 42.5974C29.9345 43.8224 29.798 45.3747 29.3763 45.8111C29.3029 45.8871 29.2474 45.8979 29.1983 45.8979H28.1136C28.5934 44.5153 28.5417 41.338 28.4103 36.0698ZM30.7123 36.066C30.6408 34.0186 30.5598 31.7141 30.5509 29.4402H31.9609C31.9724 31.7307 32.0764 34.0448 32.1695 36.1005C32.3692 40.5353 32.5575 44.7239 31.6138 45.7116C31.49 45.8405 31.3592 45.8979 31.1889 45.8979H30.3129C30.9681 44.4719 30.8929 41.2308 30.7123 36.066ZM24.6096 28.5941V15.8829H35.1178V28.5941H24.6096ZM33.0143 36.0622C32.9224 34.016 32.819 31.7122 32.8069 29.4402H34.2169C34.2316 31.7326 34.3586 34.0479 34.4722 36.1049C34.5985 38.4063 34.7178 40.5794 34.6565 42.2695C34.5927 44.0279 34.3375 45.1189 33.8775 45.6057C33.6893 45.8054 33.4666 45.8979 33.1789 45.8979H32.5153C33.3875 44.3564 33.2286 40.8091 33.0143 36.0622ZM36.9981 42.1259C36.9362 43.8594 36.6631 44.9619 36.1629 45.4966C35.9058 45.7703 35.5906 45.8979 35.1695 45.8979H34.7223C35.195 45.1974 35.4381 44.0617 35.5026 42.3001C35.5651 40.5711 35.4439 38.3795 35.3169 36.0583C35.204 34.0135 35.0776 31.7109 35.063 29.4402H36.473C36.4902 31.7351 36.6401 34.0518 36.7748 36.11C36.9202 38.3482 37.0581 40.462 36.9981 42.1259ZM37.6182 36.0552C37.4862 34.0103 37.3362 31.709 37.319 29.4402H38.729C38.7488 31.737 38.923 34.0556 39.0774 36.1145C39.3977 40.3892 39.6746 44.0808 38.4636 45.3862C38.1446 45.7307 37.7178 45.8979 37.1595 45.8979H36.9292C38.1548 44.3041 37.9168 40.6438 37.6182 36.0552ZM41.4062 28.5941H37.6935V0.421055C37.6935 0.187539 37.5034 -0.00195312 37.2705 -0.00195312H7.19294C6.95942 -0.00195312 6.76993 0.187539 6.76993 0.421055V28.5941H3.05729C1.37291 28.5941 0.00244141 29.9646 0.00244141 31.649C0.00244141 31.8825 0.191934 32.072 0.425449 32.072C0.658965 32.072 0.848457 31.8825 0.848457 31.649C0.848457 30.5771 1.61663 29.6807 2.63173 29.4823C2.60812 31.7173 2.42182 33.912 2.24062 36.0392C1.85334 40.5972 1.54709 44.1976 3.0643 45.8488C3.52559 46.3515 4.13873 46.6438 4.89032 46.7216V48.577C4.89032 48.8105 5.07917 49 5.31333 49H39.1501C39.3836 49 39.5731 48.8105 39.5731 48.577V46.7216C40.3254 46.6438 40.9385 46.3515 41.4004 45.8488C42.9157 44.1989 42.6095 40.6017 42.2228 36.0475C42.0416 33.9184 41.8553 31.7211 41.8317 29.4823C42.8462 29.6807 43.615 30.5771 43.615 31.649C43.615 31.8825 43.8045 32.072 44.038 32.072C44.2715 32.072 44.4604 31.8825 44.4604 31.649C44.4604 29.9646 43.0899 28.5941 41.4062 28.5941Z" fill="#231F20"/>
</g>
</svg>
