<svg width="48" height="49" viewBox="0 0 48 49" fill="none" xmlns="http://www.w3.org/2000/svg">
<mask id="mask0_140_938" style="mask-type:luminance" maskUnits="userSpaceOnUse" x="0" y="0" width="48" height="49">
<path d="M0 0H47.1319V49H0V0Z" fill="white"/>
</mask>
<g mask="url(#mask0_140_938)">
<path d="M0.0732422 0.00378418V44.2671H6.00428V48.1661C6.00428 48.3109 6.02151 48.443 6.07574 48.5827C6.10254 48.6535 6.13954 48.7294 6.21547 48.8124C6.29394 48.896 6.44579 48.9961 6.63465 48.9961H10.3275C10.5164 48.9961 10.6657 48.896 10.7441 48.8124C10.8226 48.7294 10.8571 48.6535 10.8864 48.5827C10.9407 48.443 10.9579 48.3109 10.9579 48.1661V44.2671H36.1055V48.1661C36.1055 48.3109 36.1227 48.443 36.1788 48.5827C36.2063 48.6535 36.2407 48.7294 36.3186 48.8124C36.397 48.896 36.5495 48.9961 36.7377 48.9961H40.4287C40.6175 48.9961 40.7694 48.896 40.8453 48.8124C40.9238 48.7294 40.9608 48.6535 40.9876 48.5827C41.0437 48.443 41.061 48.3109 41.061 48.1661V44.2671H47.0903V0.00378418H0.0732422ZM1.07812 1.00484H22.5769V43.2661H10.9579V43.2635H6.00428V43.2661H1.07812V1.00484ZM23.5818 1.00484H46.0854V43.2635H23.5818V1.00484ZM17.4765 29.4663H19.9865V14.4282H17.4765V29.4663ZM26.1109 29.4663H28.6208V14.4282H26.1109V29.4663ZM18.4795 15.4311H18.9816V28.4653H18.4795V15.4311ZM27.1158 15.4311H27.616V28.4653H27.1158V15.4311ZM37.1104 44.2671H40.0561V47.9951H37.1104V44.2671ZM7.00661 44.2671H9.95555V47.9951H7.00661V44.2671Z" fill="black"/>
</g>
</svg>
