<svg width="50" height="49" viewBox="0 0 50 49" fill="none" xmlns="http://www.w3.org/2000/svg">
<mask id="mask0_140_880" style="mask-type:luminance" maskUnits="userSpaceOnUse" x="0" y="0" width="50" height="49">
<path d="M0 0H49.7462V49H0V0Z" fill="white"/>
</mask>
<g mask="url(#mask0_140_880)">
<path d="M2.98237 1.59539H46.7733C47.5337 1.59539 48.1523 2.24896 48.1523 3.0528V13.2806H1.60269V3.0528C1.60269 2.24896 2.22193 1.59539 2.98237 1.59539ZM46.7733 47.391H2.98237C2.22193 47.391 1.60269 46.7375 1.60269 45.9336V14.8805H48.1523V45.9336C48.1523 46.7375 47.5337 47.391 46.7733 47.391ZM2.98237 48.9909H46.7733C48.4146 48.9909 49.7503 47.6197 49.7503 45.9336V3.0528C49.7503 1.36674 48.4146 -0.0045166 46.7733 -0.0045166H2.98237C1.341 -0.0045166 0.00537109 1.36674 0.00537109 3.0528V45.9336C0.00537109 47.6197 1.341 48.9909 2.98237 48.9909Z" fill="#292727"/>
</g>
<path d="M43.9779 43.6756H5.77701V18.7927H43.9779V43.6756ZM44.0505 17.1935H5.70446C4.8637 17.1935 4.17969 17.8892 4.17969 18.7455V43.7228C4.17969 44.5791 4.8637 45.2755 5.70446 45.2755H44.0505C44.8919 45.2755 45.5753 44.5791 45.5753 43.7228V18.7455C45.5753 17.8892 44.8919 17.1935 44.0505 17.1935Z" fill="#292727"/>
<path d="M16.5985 22.3041H33.1572C33.5983 22.3041 33.9559 21.9459 33.9559 21.5035C33.9559 21.0618 33.5983 20.7042 33.1572 20.7042H16.5985C16.1574 20.7042 15.7998 21.0618 15.7998 21.5035C15.7998 21.9459 16.1574 22.3041 16.5985 22.3041Z" fill="#292727"/>
<path d="M8.55783 4.85284C9.85266 4.85284 10.9059 5.95658 10.9059 7.31294C10.9059 8.6693 9.85266 9.7737 8.55783 9.7737C7.263 9.7737 6.20914 8.6693 6.20914 7.31294C6.20914 5.95658 7.263 4.85284 8.55783 4.85284ZM8.55783 11.3736C10.7336 11.3736 12.5038 9.55217 12.5038 7.31294C12.5038 5.07437 10.7336 3.25293 8.55783 3.25293C6.38208 3.25293 4.61182 5.07437 4.61182 7.31294C4.61182 9.55217 6.38208 11.3736 8.55783 11.3736Z" fill="#292727"/>
<path d="M19.4377 4.85284C20.7319 4.85284 21.7858 5.95658 21.7858 7.31294C21.7858 8.6693 20.7319 9.7737 19.4377 9.7737C18.1429 9.7737 17.0897 8.6693 17.0897 7.31294C17.0897 5.95658 18.1429 4.85284 19.4377 4.85284ZM19.4377 11.3736C21.6135 11.3736 23.3837 9.55217 23.3837 7.31294C23.3837 5.07437 21.6135 3.25293 19.4377 3.25293C17.262 3.25293 15.4917 5.07437 15.4917 7.31294C15.4917 9.55217 17.262 11.3736 19.4377 11.3736Z" fill="#292727"/>
<path d="M30.3171 4.85284C31.6119 4.85284 32.6652 5.95658 32.6652 7.31294C32.6652 8.6693 31.6119 9.7737 30.3171 9.7737C29.0223 9.7737 27.9691 8.6693 27.9691 7.31294C27.9691 5.95658 29.0223 4.85284 30.3171 4.85284ZM30.3171 11.3736C32.4929 11.3736 34.2631 9.55217 34.2631 7.31294C34.2631 5.07437 32.4929 3.25293 30.3171 3.25293C28.1414 3.25293 26.3711 5.07437 26.3711 7.31294C26.3711 9.55217 28.1414 11.3736 30.3171 11.3736Z" fill="#292727"/>
<path d="M41.1975 4.85284C42.4923 4.85284 43.5462 5.95658 43.5462 7.31294C43.5462 8.6693 42.4923 9.7737 41.1975 9.7737C39.9027 9.7737 38.8494 8.6693 38.8494 7.31294C38.8494 5.95658 39.9027 4.85284 41.1975 4.85284ZM41.1975 11.3736C43.3732 11.3736 45.1435 9.55217 45.1435 7.31294C45.1435 5.07437 43.3732 3.25293 41.1975 3.25293C39.0217 3.25293 37.2515 5.07437 37.2515 7.31294C37.2515 9.55217 39.0217 11.3736 41.1975 11.3736Z" fill="#292727"/>
</svg>
