<svg width="76" height="49" viewBox="0 0 76 49" fill="none" xmlns="http://www.w3.org/2000/svg">
<mask id="mask0_140_904" style="mask-type:luminance" maskUnits="userSpaceOnUse" x="0" y="0" width="76" height="49">
<path d="M0 0H75.3846V49H0V0Z" fill="white"/>
</mask>
<g mask="url(#mask0_140_904)">
<path d="M3.84065 -0.00195312H71.5484C72.5918 -0.00195312 73.541 0.457422 74.2281 1.19851C74.2458 1.21814 74.2634 1.23777 74.2791 1.25937C74.9358 1.99456 75.3412 2.9938 75.3412 4.08923V44.9069C75.3412 46.0308 74.9142 47.0526 74.2281 47.7937L73.6038 47.1242L74.2281 47.7976L74.2114 47.8143C73.5263 48.5455 72.584 48.9981 71.5484 48.9981H3.84065C2.79625 48.9981 1.84708 48.5377 1.16096 47.7976C1.14231 47.778 1.12562 47.7583 1.10992 47.7377C0.452264 46.9996 0.046875 46.0003 0.046875 44.9069V4.08923C0.046875 2.96632 0.473858 1.94352 1.16194 1.20047L1.16096 1.19851L1.17666 1.18084C1.8618 0.450551 2.80411 -0.00195312 3.84065 -0.00195312ZM71.5484 1.90033H3.84065C3.28606 1.90033 2.78153 2.14474 2.41344 2.53835L2.40853 2.54424L1.78425 1.87187L2.40461 2.54424C2.03946 2.93883 1.81174 3.48557 1.81174 4.08923V44.9069C1.81174 45.4889 2.02376 46.02 2.36829 46.4106C2.38203 46.4234 2.39479 46.4371 2.40853 46.4509C2.77662 46.8484 3.28311 47.0948 3.84065 47.0948H71.5484C72.102 47.0948 72.6065 46.8504 72.9746 46.4577L72.9795 46.4509H72.9805L72.9815 46.4528C73.3486 46.0563 73.5763 45.5086 73.5763 44.9069V4.08923C73.5763 3.50814 73.3643 2.97711 73.0198 2.58449C73.006 2.57172 72.9933 2.55798 72.9805 2.54424C72.6124 2.14769 72.1049 1.90033 71.5484 1.90033Z" fill="black"/>
</g>
<mask id="mask1_140_904" style="mask-type:luminance" maskUnits="userSpaceOnUse" x="57" y="0" width="3" height="49">
<path d="M57.2925 0H59.3027V49H57.2925V0Z" fill="white"/>
</mask>
<g mask="url(#mask1_140_904)">
<path d="M59.2917 0.949189C59.2917 0.424048 58.8971 -0.00195312 58.4093 -0.00195312C57.9224 -0.00195312 57.5269 0.424048 57.5269 0.949189V48.0459C57.5269 48.572 57.9224 48.9981 58.4093 48.9981C58.8971 48.9981 59.2917 48.572 59.2917 48.0459V0.949189Z" fill="black"/>
</g>
<path d="M7.22325 9.1051H52.296C52.7829 9.1051 53.1784 9.5311 53.1784 10.0562V39.9451C53.1784 40.4712 52.7829 40.8972 52.296 40.8972H7.22325C6.73639 40.8972 6.34082 40.4712 6.34082 39.9451V10.0562C6.34082 9.5311 6.73639 9.1051 7.22325 9.1051ZM51.4136 11.0084H8.10568V38.9939H51.4136V11.0084Z" fill="black"/>
<path d="M15.0162 25.6593H43.7566C44.2444 25.6593 44.639 26.0853 44.639 26.6114C44.639 30.5407 43.149 34.1126 40.7491 36.701C38.3482 39.2904 35.0363 40.8972 31.3927 40.8972H27.3801C23.7365 40.8972 20.4247 39.2904 18.0247 36.701C15.6238 34.1126 14.1338 30.5407 14.1338 26.6114C14.1338 26.0853 14.5294 25.6593 15.0162 25.6593ZM42.8408 27.5626H15.933C16.149 30.5897 17.3867 33.3224 19.2723 35.3553C21.3532 37.6001 24.2243 38.9939 27.3801 38.9939H31.3927C34.5495 38.9939 37.4196 37.6001 39.5015 35.3553C41.3871 33.3224 42.6249 30.5897 42.8408 27.5626Z" fill="black"/>
<path d="M61.5122 41.4016V41.4007L61.5132 41.3948H61.5122L61.5132 41.382V41.3742L61.5152 41.3329L61.5181 41.2937C61.5495 40.3622 61.9147 39.5239 62.4869 38.9153C63.0788 38.2861 63.8945 37.8994 64.7916 37.9053V37.9023H64.8162L64.8564 37.9043L64.8643 37.9053H64.8682L64.8868 37.9073L64.8918 37.9082C65.7555 37.9416 66.532 38.3352 67.0964 38.9526C67.6814 39.5926 68.0397 40.4731 68.0328 41.4419C68.0269 42.4146 67.6559 43.2931 67.062 43.9243C66.4701 44.5535 65.6544 44.9402 64.7573 44.9343V44.9382L64.7514 44.9373V44.9382L64.7396 44.9373H64.7318C64.7121 44.9373 64.6925 44.9353 64.6729 44.9333L64.6572 44.9314C63.7934 44.898 63.017 44.5044 62.4526 43.887C61.8685 43.249 61.5102 42.3695 61.5161 41.4016H61.5122ZM63.2771 41.4007V41.4085H63.2741C63.2722 41.8551 63.4371 42.2615 63.707 42.556C63.9632 42.8367 64.3136 43.0173 64.7003 43.0369L64.7102 43.036H64.7121L64.7308 43.035H64.7632V43.0379C65.1774 43.0409 65.5543 42.8622 65.8282 42.5707C66.101 42.2801 66.2728 41.8777 66.2748 41.434C66.2777 40.9864 66.1118 40.5791 65.8419 40.2836C65.5857 40.0029 65.2353 39.8223 64.8476 39.8036H64.8348L64.8191 39.8046H64.7985L64.7916 39.8056H64.7848V39.8017C64.3705 39.7987 63.9946 39.9774 63.7207 40.2689C63.4606 40.5457 63.2938 40.9226 63.2751 41.3408L63.2761 41.3457V41.3555L63.2771 41.3693V41.4007Z" fill="black"/>
<path d="M61.5865 30.7644C61.5924 29.7916 61.9634 28.9141 62.5573 28.283C63.1501 27.6528 63.9668 27.266 64.8659 27.2729C65.768 27.2798 66.5817 27.6793 67.1667 28.3203C67.7517 28.9593 68.11 29.8407 68.1031 30.8095C68.0973 31.7823 67.7262 32.6598 67.1324 33.2919C66.5395 33.9221 65.7228 34.3078 64.8247 34.301C63.9217 34.2941 63.1079 33.8946 62.5229 33.2536C61.9389 32.6146 61.5806 31.7342 61.5865 30.7644ZM63.7911 29.6356C63.5182 29.9271 63.3465 30.3285 63.3445 30.7722C63.3415 31.2198 63.5074 31.6272 63.7774 31.9236C64.0473 32.2181 64.4203 32.4026 64.8316 32.4056C65.2458 32.4085 65.6247 32.2298 65.8985 31.9383C66.1714 31.6478 66.3432 31.2453 66.3461 30.8017C66.3491 30.3541 66.1822 29.9467 65.9123 29.6503C65.6423 29.3558 65.2703 29.1713 64.8591 29.1683C64.4438 29.1654 64.0659 29.344 63.7911 29.6356Z" fill="black"/>
<path d="M61.6543 20.1359V20.1084L61.6563 20.0672L61.6592 20.0279C61.6906 19.0964 62.0558 18.2582 62.628 17.6496C63.2199 17.0204 64.0356 16.6346 64.9327 16.6405V16.6366H64.9573L64.9985 16.6386L65.0054 16.6395H65.0093L65.028 16.6415L65.0329 16.6425C65.8966 16.6759 66.6731 17.0695 67.2375 17.6869C67.8215 18.3259 68.1798 19.2054 68.1739 20.1722H68.1778V20.1918L68.1768 20.2007C68.1768 20.2213 68.1759 20.2429 68.1739 20.2635L68.1719 20.2812C68.1405 21.2127 67.7754 22.05 67.2031 22.6585C66.6112 23.2887 65.7955 23.6745 64.8994 23.6686V23.6725H64.8925L64.8807 23.6715H64.8729L64.8346 23.6695L64.7983 23.6656C63.9345 23.6322 63.1581 23.2386 62.5937 22.6212C62.0096 21.9832 61.6514 21.1037 61.6572 20.1359H61.6543ZM63.4182 20.1359V20.1437H63.4152C63.4133 20.5894 63.5782 20.9958 63.8481 21.2902C64.1043 21.571 64.4547 21.7516 64.8424 21.7712H64.8473L64.8562 21.7702L64.8689 21.7692H64.9053V21.7732C65.3195 21.7751 65.6954 21.5965 65.9693 21.3059C66.2294 21.0291 66.3963 20.6522 66.4149 20.2341L66.4139 20.2233V20.2017L66.413 20.1958V20.1663H66.4169C66.4188 19.7197 66.253 19.3133 65.983 19.0179C65.7268 18.7372 65.3764 18.5575 64.9887 18.5379H64.9759L64.9612 18.5389H64.9534L64.9396 18.5399H64.9259V18.5359C64.5116 18.534 64.1357 18.7126 63.8618 19.0032C63.6017 19.28 63.4349 19.6569 63.4162 20.075L63.4172 20.0799V20.0898L63.4182 20.1045V20.1359Z" fill="black"/>
<path d="M61.7281 9.4996C61.735 8.52588 62.106 7.64836 62.6989 7.01721C63.2917 6.38704 64.1084 6.0003 65.0075 6.00717C65.9096 6.01404 66.7233 6.41452 67.3093 7.05451C67.8933 7.69351 68.2516 8.57496 68.2457 9.54377C68.2389 10.5175 67.8678 11.395 67.274 12.0262C66.6811 12.6563 65.8644 13.0421 64.9663 13.0362C64.0633 13.0283 63.2495 12.6288 62.6645 11.9889C62.0805 11.3489 61.7222 10.4684 61.7281 9.4996ZM63.9327 8.36981C63.6598 8.66134 63.489 9.0628 63.4861 9.50647C63.4831 9.95407 63.649 10.3624 63.919 10.6579C64.1889 10.9523 64.5619 11.1369 64.9732 11.1398C65.3884 11.1427 65.7663 10.9641 66.0401 10.6726C66.314 10.382 66.4848 9.97959 66.4877 9.53592C66.4907 9.08832 66.3248 8.68097 66.0539 8.38552C65.7849 8.09006 65.4119 7.90651 65.0007 7.90258C64.5855 7.89964 64.2075 8.07828 63.9327 8.36981Z" fill="black"/>
<path d="M24.4668 20.4794C24.773 20.8858 25.3276 20.9467 25.7046 20.6169C26.0815 20.2861 26.1384 19.6883 25.8322 19.2819C25.7046 19.1141 25.6044 18.9158 25.5406 18.6979C25.4808 18.4908 25.4543 18.268 25.47 18.0393C25.4847 17.8106 25.5406 17.5946 25.627 17.4022C25.7163 17.201 25.843 17.0204 25.9951 16.8702C26.3524 16.5149 26.376 15.9142 26.0471 15.5284C25.7173 15.1426 25.1598 15.1171 24.8025 15.4725C24.4904 15.7807 24.2302 16.1546 24.0418 16.5767C23.8592 16.9821 23.7434 17.4307 23.712 17.9058C23.6806 18.3808 23.7336 18.8422 23.8592 19.2701C23.9878 19.7109 24.1969 20.1212 24.4668 20.4794Z" fill="black"/>
<path d="M24.712 22.9894C24.4057 23.3958 24.4627 23.9936 24.8396 24.3243C25.2155 24.6542 25.7701 24.5923 26.0764 24.1859C26.3473 23.8287 26.5554 23.4184 26.6849 22.9776C26.8096 22.5497 26.8636 22.0883 26.8312 21.6132C26.7998 21.1382 26.6849 20.6896 26.5033 20.2822C26.3178 19.867 26.0577 19.494 25.7416 19.1819C25.3843 18.8285 24.8288 18.855 24.5009 19.2418C24.1741 19.6275 24.1986 20.2263 24.5559 20.5797C24.7031 20.7249 24.8268 20.9046 24.9181 21.1077C25.0035 21.3001 25.0585 21.5161 25.0742 21.7467C25.0889 21.9754 25.0634 22.1983 25.0025 22.4044C24.9387 22.6223 24.8396 22.8206 24.712 22.9894Z" fill="black"/>
<path d="M28.7767 20.4795C29.083 20.8859 29.6376 20.9468 30.0145 20.617C30.3904 20.2862 30.4484 19.6884 30.1421 19.282C30.0145 19.1142 29.9144 18.9159 29.8506 18.698C29.7907 18.4909 29.7642 18.2681 29.7799 18.0394C29.7946 17.8097 29.8496 17.5947 29.937 17.4013C30.0282 17.1972 30.1529 17.0166 30.3011 16.8703C30.6594 16.5169 30.6839 15.9182 30.3561 15.5324C30.0292 15.1457 29.4737 15.1192 29.1154 15.4725C28.7993 15.7847 28.5382 16.1596 28.3507 16.5768C28.1691 16.9822 28.0533 17.4308 28.0219 17.9059C27.9895 18.3819 28.0435 18.8423 28.1682 19.2702C28.2977 19.711 28.5058 20.1213 28.7767 20.4795Z" fill="black"/>
<path d="M29.0211 22.9894C28.7148 23.3958 28.7727 23.9936 29.1487 24.3243C29.5256 24.6542 30.0802 24.5923 30.3864 24.1859C30.6573 23.8287 30.8654 23.4184 30.994 22.9776C31.1196 22.5497 31.1736 22.0883 31.1412 21.6132C31.1098 21.1382 30.995 20.6896 30.8134 20.2822C30.6279 19.867 30.3678 19.494 30.0517 19.1819C29.6944 18.8285 29.1379 18.855 28.811 19.2418C28.4841 19.6275 28.5087 20.2263 28.866 20.5797C29.0132 20.7249 29.1369 20.9046 29.2282 21.1077C29.3136 21.3001 29.3685 21.5161 29.3833 21.7467C29.399 21.9754 29.3725 22.1983 29.3126 22.4044C29.2488 22.6223 29.1487 22.8206 29.0211 22.9894Z" fill="black"/>
<path d="M32.6963 20.4794C33.0025 20.8858 33.5571 20.9467 33.934 20.6169C34.311 20.2861 34.3679 19.6883 34.0617 19.2819C33.934 19.1141 33.8339 18.9158 33.7701 18.6979C33.7103 18.4908 33.6837 18.268 33.6995 18.0393C33.7142 17.8106 33.7701 17.5946 33.8565 17.4022C33.9458 17.201 34.0724 17.0204 34.2246 16.8702C34.5819 16.5149 34.6054 15.9142 34.2766 15.5284C33.9468 15.1426 33.3893 15.1171 33.032 15.4725C32.7198 15.7807 32.4597 16.1546 32.2703 16.5767C32.0887 16.9821 31.9729 17.4307 31.9415 17.9058C31.91 18.3808 31.9631 18.8422 32.0887 19.2701C32.2173 19.7109 32.4254 20.1212 32.6963 20.4794Z" fill="black"/>
<path d="M32.9415 22.9894C32.6342 23.3958 32.6921 23.9936 33.0681 24.3243C33.445 24.6542 33.9996 24.5923 34.3058 24.1859C34.5768 23.8287 34.7849 23.4184 34.9144 22.9776C35.0391 22.5497 35.0931 22.0883 35.0607 21.6132C35.0293 21.1382 34.9144 20.6896 34.7328 20.2822C34.5473 19.867 34.2872 19.494 33.9711 19.1819C33.6138 18.8285 33.0583 18.855 32.7304 19.2418C32.4036 19.6275 32.4281 20.2263 32.7854 20.5797C32.9326 20.7249 33.0563 20.9046 33.1476 21.1077C33.233 21.3001 33.288 21.5161 33.3037 21.7467C33.3184 21.9754 33.2929 22.1983 33.232 22.4044C33.1682 22.6223 33.0681 22.8206 32.9415 22.9894Z" fill="black"/>
</svg>
