<svg width="92" height="95" viewBox="0 0 92 95" fill="none" xmlns="http://www.w3.org/2000/svg">
<mask id="mask0_143_1165" style="mask-type:luminance" maskUnits="userSpaceOnUse" x="0" y="0" width="92" height="95">
<path d="M0 0H91.4136V95H0V0Z" fill="white"/>
</mask>
<g mask="url(#mask0_143_1165)">
<path d="M49.4738 49.1301C49.4738 48.6992 49.3978 48.2895 49.2645 47.9047H62.8219C63.7036 47.9047 64.4196 48.6195 64.4196 49.4999C64.4196 50.3828 63.7036 51.0976 62.8219 51.0976H48.9109C49.2658 50.5248 49.4738 49.8523 49.4738 49.1301ZM47.0915 45.6371V23.9667C47.0915 23.5283 46.4378 22.7936 45.6333 22.7936C44.8276 22.7936 44.1738 23.5283 44.1738 23.9667V45.7093C44.6458 45.4963 45.1676 45.3743 45.7192 45.3743C46.2036 45.3756 46.6656 45.4702 47.0915 45.6371ZM45.7192 52.3367C47.4913 52.3367 48.9283 50.9009 48.9283 49.1276C48.9283 47.3568 47.4913 45.9185 45.7192 45.9185C43.9459 45.9185 42.5077 47.3568 42.5077 49.1276C42.5089 50.9009 43.9459 52.3367 45.7192 52.3367ZM62.9029 20.2757C62.4732 20.0204 62.0312 19.7701 61.5891 19.5322L60.0649 22.3665C60.4659 22.5819 60.8656 22.8086 61.2529 23.0402L62.9029 20.2757ZM58.8955 76.4939L60.2928 79.3954C60.7411 79.1762 61.1931 78.9471 61.6339 78.7092L60.1047 75.8762C59.7087 76.0917 59.3003 76.2996 58.8955 76.4939ZM75.2648 33.1668C75.0269 32.7272 74.7766 32.2876 74.5188 31.8593L71.7593 33.5167C71.9922 33.904 72.2201 34.3013 72.4355 34.6973L75.2648 33.1668ZM74.5438 66.3673L71.7817 64.7135C71.5501 65.0983 71.306 65.4881 71.0557 65.8679L73.7393 67.6424C74.017 67.2253 74.2847 66.7931 74.5438 66.3673ZM18.3367 35.9836C18.5347 35.5739 18.7415 35.1655 18.9581 34.7682L16.1226 33.2428C15.8848 33.6836 15.6569 34.1344 15.4365 34.5877L18.3367 35.9836ZM45.7192 11.2673C66.6287 11.2673 83.5795 28.2181 83.5795 49.1263C83.5795 70.0383 66.6287 86.9916 45.7192 86.9916C24.8085 86.9916 7.8577 70.0383 7.8577 49.1263C7.8577 28.2181 24.8085 11.2673 45.7192 11.2673ZM11.4603 47.2846L16.5672 47.4763C16.5361 48.1463 16.5211 48.8188 16.5211 49.4837L11.4155 49.5323C11.6284 67.884 26.2505 82.7726 44.4964 83.4114V78.4328C45.1788 78.4328 45.8712 78.4166 46.5498 78.3867L46.7466 83.4189C64.6027 82.8934 79.0342 68.7233 79.9757 50.9756L74.9784 50.7863C75.0082 50.1325 75.0232 49.475 75.0232 48.8175V48.7191H80.0217C79.8038 30.0648 64.6986 14.9907 46.0318 14.8238L46.0393 19.9195C45.3581 19.922 44.6695 19.9357 43.992 19.9668L43.7878 14.8749C26.3489 15.8437 12.3831 29.8344 11.4603 47.2846ZM16.8922 66.3735L19.6505 64.7197C19.4201 64.3337 19.196 63.9365 18.9781 63.5392L16.1488 65.0672C16.3854 65.508 16.6369 65.9488 16.8922 66.3735ZM29.8095 78.7167L31.335 75.8812C30.9353 75.6683 30.538 75.4404 30.1507 75.2087L28.4982 77.972C28.9254 78.2286 29.3687 78.4789 29.8095 78.7167ZM30.1121 23.0775L28.4559 20.318C28.0288 20.5758 27.6016 20.846 27.1832 21.1212L28.9602 23.8048C29.3388 23.5545 29.7248 23.3104 30.1121 23.0775ZM91.3413 49.1288C91.3413 48.815 91.0873 48.561 90.7735 48.561C90.4597 48.561 90.2057 48.815 90.2057 49.1288H90.172C90.1733 53.4861 89.5394 57.8408 88.278 62.0088C87.019 66.178 85.1361 70.1566 82.7178 73.7792C77.8911 81.0329 70.8876 86.8185 62.8418 90.1646C54.8085 93.5405 45.7665 94.4309 37.2164 92.771C28.6564 91.1322 20.6343 86.8671 14.4515 80.7278C11.3545 77.6644 8.70948 74.1465 6.62986 70.3198C4.55024 66.4943 3.04096 62.3587 2.16801 58.0924C0.41964 49.5585 1.21537 40.509 4.50416 32.4396C7.76555 24.3577 13.4789 17.2957 20.6804 12.393C24.2755 9.9361 28.2355 8.01089 32.391 6.70833C33.4296 6.38207 34.4806 6.09441 35.5403 5.84659L36.336 5.66727L36.9288 5.54524L36.9948 5.53154L37.2575 5.48048L38.0857 9.78044C40.2811 7.6672 42.8426 5.73576 45.7192 4.07581C42.8439 2.41585 39.6535 1.02611 36.2015 0L37.0297 4.29996L36.7607 4.3535L36.6934 4.3672L36.0845 4.49297L35.2663 4.67728C34.1767 4.93256 33.0971 5.22769 32.0311 5.56143C27.7623 6.9001 23.6964 8.87761 20.0029 11.4005C12.6072 16.4365 6.74069 23.6865 3.39088 31.9875C0.0124328 40.2799 -0.804471 49.5684 0.991224 58.3327C1.88783 62.7161 3.43945 66.9637 5.5751 70.8926C7.70952 74.824 10.4267 78.4365 13.6072 81.5821C19.9544 87.8857 28.1944 92.2666 36.9873 93.9502C45.769 95.655 55.0489 94.741 63.3051 91.2741C71.5688 87.8359 78.7578 81.8959 83.7152 74.4466C86.1996 70.727 88.1335 66.64 89.4261 62.3574C90.7224 58.0749 91.3725 53.6006 91.3725 49.1301H91.3413V49.1288Z" fill="url(#paint0_linear_143_1165)"/>
</g>
<defs>
<linearGradient id="paint0_linear_143_1165" x1="15.3048" y1="-4.13992e-07" x2="103.818" y2="70.6467" gradientUnits="userSpaceOnUse">
<stop stop-color="#2073EF"/>
<stop offset="1" stop-color="#003882"/>
</linearGradient>
</defs>
</svg>
