<svg width="61" height="49" viewBox="0 0 61 49" fill="none" xmlns="http://www.w3.org/2000/svg">
<path d="M57.9499 20.4116H56.9335V3.0617C56.9335 2.86035 56.9137 2.66141 56.8746 2.46406C56.8356 2.26751 56.7775 2.07575 56.7011 1.89039C56.6247 1.70423 56.5308 1.52765 56.4194 1.36067C56.3079 1.19368 56.1814 1.03868 56.0397 0.896457C55.8988 0.754239 55.7444 0.627999 55.5781 0.516142C55.4117 0.404284 55.2358 0.310005 55.0504 0.233303C54.8657 0.155801 54.6747 0.0982749 54.4781 0.0591246C54.2823 0.0199746 54.0833 0 53.8835 0H47.7836C47.583 0 47.3848 0.0199746 47.1882 0.0591246C46.9916 0.0982749 46.8014 0.155801 46.6159 0.233303C46.4313 0.310005 46.2554 0.404284 46.089 0.516142C45.9227 0.627999 45.7683 0.754239 45.6266 0.896457C45.4849 1.03868 45.3584 1.19368 45.2477 1.36067C45.1363 1.52765 45.0424 1.70423 44.9652 1.89039C44.8888 2.07575 44.8307 2.26751 44.7917 2.46406C44.7527 2.66141 44.7336 2.86035 44.7336 3.0617V4.17388C44.5577 4.20424 44.3834 4.24179 44.2106 4.28733C44.0387 4.33208 43.8684 4.38481 43.7004 4.44553C43.5325 4.50546 43.3677 4.57337 43.2054 4.64768C43.0438 4.72278 42.8854 4.80428 42.7302 4.89296C42.5758 4.98165 42.4246 5.07673 42.2781 5.179C42.1317 5.28127 41.99 5.38913 41.8531 5.50338C41.7154 5.61764 41.5841 5.73829 41.4575 5.86452C41.3302 5.98996 41.21 6.1218 41.0946 6.25842C40.9792 6.39505 40.8701 6.53647 40.7674 6.68268C40.6648 6.82889 40.5685 6.9791 40.4785 7.13411C40.3894 7.28831 40.3066 7.44651 40.2302 7.6087C40.1546 7.77089 40.0861 7.93548 40.0241 8.10327C39.9628 8.27186 39.9086 8.44204 39.8625 8.61462C39.8155 8.7872 39.7765 8.96218 39.7455 9.13795C39.7136 9.31453 39.6906 9.4919 39.6746 9.67007C39.6587 9.84825 39.65 10.0264 39.65 10.2054V11.2265C39.65 11.2936 39.6563 11.3599 39.6699 11.4254C39.6826 11.491 39.7017 11.5549 39.7272 11.6172C39.7526 11.6787 39.7845 11.7378 39.8211 11.793C39.8585 11.8489 39.9007 11.9008 39.9476 11.948C39.9946 11.9951 40.0463 12.0375 40.1021 12.075C40.157 12.1118 40.2159 12.1437 40.278 12.1693C40.3392 12.1949 40.4029 12.214 40.4682 12.2276C40.5334 12.2404 40.6003 12.2468 40.6664 12.2468H50.8336C50.9004 12.2468 50.9665 12.2404 51.0317 12.2276C51.097 12.214 51.1607 12.1949 51.2228 12.1693C51.284 12.1437 51.3429 12.1118 51.3979 12.075C51.4536 12.0375 51.5053 11.9951 51.5523 11.948C51.5992 11.9008 51.6414 11.8489 51.6788 11.793C51.7154 11.7378 51.7473 11.6787 51.7727 11.6172C51.7982 11.5549 51.8173 11.491 51.8309 11.4254C51.8436 11.3599 51.85 11.2936 51.85 11.2265V10.2054C51.85 10.0264 51.8412 9.84825 51.8253 9.67007C51.8102 9.4919 51.7863 9.31453 51.7544 9.13795C51.7234 8.96218 51.6844 8.7872 51.6374 8.61462C51.5913 8.44204 51.5372 8.27186 51.4759 8.10327C51.4138 7.93548 51.3453 7.77089 51.2697 7.6087C51.1941 7.44651 51.1113 7.28831 51.0214 7.13411C50.9314 6.9791 50.8351 6.82889 50.7325 6.68268C50.6298 6.53647 50.5208 6.39505 50.4053 6.25842C50.2907 6.1218 50.1698 5.98996 50.0432 5.86452C49.9166 5.73829 49.7845 5.61764 49.6476 5.50338C49.5099 5.38913 49.3682 5.28127 49.2218 5.179C49.0753 5.07673 48.9249 4.98165 48.7697 4.89296C48.6145 4.80428 48.4561 4.72278 48.2945 4.64768C48.1322 4.57337 47.9674 4.50546 47.7995 4.44553C47.6315 4.38481 47.4612 4.33208 47.2893 4.28733C47.1166 4.24179 46.9423 4.20424 46.7664 4.17388V3.0617C46.7664 2.99458 46.7735 2.92827 46.7863 2.86275C46.799 2.79723 46.8189 2.73332 46.8444 2.67099C46.8698 2.60947 46.9009 2.55035 46.9383 2.49442C46.9749 2.43929 47.0171 2.38736 47.0648 2.34022C47.1118 2.29228 47.1627 2.25073 47.2184 2.21318C47.2742 2.17563 47.3323 2.14447 47.3943 2.1189C47.4556 2.09333 47.5193 2.07416 47.5854 2.06057C47.6506 2.04779 47.7167 2.0414 47.7836 2.0414H53.8835C53.9504 2.0414 54.0165 2.04779 54.0817 2.06057C54.147 2.07416 54.2107 2.09333 54.2728 2.1189C54.334 2.14447 54.3929 2.17563 54.4479 2.21318C54.5036 2.25073 54.5553 2.29228 54.6023 2.34022C54.6492 2.38736 54.6914 2.43929 54.7288 2.49442C54.7654 2.55035 54.7973 2.60947 54.8227 2.67099C54.8482 2.73332 54.8673 2.79723 54.8808 2.86275C54.8936 2.92827 54.9 2.99458 54.9 3.0617V20.4116H24.2129C24.1612 20.2638 24.0975 20.1208 24.0235 19.9825C23.9503 19.8443 23.8659 19.7125 23.772 19.5878C23.6773 19.4624 23.5746 19.3449 23.4624 19.2355C23.3501 19.1268 23.2308 19.0269 23.1034 18.9359C22.9761 18.8448 22.8423 18.7641 22.7031 18.6946C22.563 18.6243 22.4189 18.5651 22.2701 18.5172C22.1212 18.4693 21.97 18.4325 21.8156 18.4077C21.6612 18.3838 21.506 18.371 21.35 18.3702H13.2164C13.0604 18.371 12.9052 18.3838 12.7508 18.4077C12.5964 18.4325 12.4451 18.4693 12.2963 18.5172C12.1475 18.5651 12.0034 18.6243 11.8633 18.6946C11.724 18.7641 11.5903 18.8448 11.463 18.9359C11.3356 19.0269 11.2162 19.1268 11.104 19.2355C10.9918 19.3449 10.8891 19.4624 10.7944 19.5878C10.7005 19.7125 10.6169 19.8443 10.5429 19.9825C10.4688 20.1208 10.406 20.2638 10.3534 20.4116H3.05C2.85022 20.4124 2.65203 20.4332 2.45623 20.4731C2.26044 20.5131 2.07021 20.5714 1.88555 20.6489C1.7009 20.7264 1.52579 20.8207 1.35945 20.9325C1.1931 21.0444 1.03948 21.1714 0.898603 21.3128C0.756928 21.455 0.630375 21.6093 0.518945 21.7762C0.407515 21.9432 0.313596 22.119 0.236391 22.3044C0.159186 22.4897 0.101083 22.6807 0.0612865 22.8772C0.0214902 23.0738 0.000795877 23.2727 0 23.4733C0.000795877 23.6299 0.0127348 23.7857 0.0374086 23.9407C0.0620825 24.0957 0.0978992 24.2475 0.145655 24.3969C0.193411 24.5463 0.252309 24.6909 0.322351 24.8315C0.392393 24.9714 0.472781 25.1056 0.563517 25.2334C0.653457 25.3613 0.752948 25.4811 0.86199 25.5938C0.971033 25.7064 1.08803 25.8095 1.2122 25.9046C1.33716 25.9989 1.46849 26.0828 1.60618 26.1571C1.74388 26.2314 1.88555 26.2945 2.0336 26.3472V35.7201C2.0336 36.2282 2.06862 36.734 2.13707 37.2373C2.20631 37.7407 2.30819 38.2369 2.4443 38.7258C2.5804 39.2156 2.74834 39.6934 2.94891 40.16C3.14949 40.6266 3.3811 41.0772 3.64217 41.5119C3.90403 41.9473 4.19375 42.362 4.51132 42.7575C4.8289 43.153 5.17115 43.5253 5.53966 43.8745C5.90738 44.2236 6.29659 44.5456 6.70808 44.8412C7.11958 45.1369 7.54938 45.4037 7.99669 45.641L6.39767 47.2454C6.34912 47.2925 6.30614 47.3436 6.26714 47.3996C6.22893 47.4555 6.1963 47.5146 6.17004 47.5761C6.14297 47.6385 6.12308 47.7032 6.10955 47.7695C6.09522 47.8358 6.08806 47.9029 6.08726 47.9708C6.08726 48.038 6.09283 48.1051 6.10557 48.1722C6.1183 48.2385 6.1374 48.3032 6.16287 48.3655C6.18834 48.4287 6.22018 48.4878 6.25759 48.5445C6.295 48.6012 6.33718 48.6532 6.38494 48.7011C6.43269 48.7491 6.48522 48.7914 6.54094 48.829C6.59745 48.8665 6.65635 48.8985 6.71923 48.924C6.78131 48.9496 6.84578 48.9688 6.91184 48.9816C6.9787 48.9943 7.04556 49.0007 7.11321 48.9999C7.18007 48.9991 7.24693 48.9919 7.31299 48.9784C7.37905 48.964 7.44352 48.944 7.5056 48.9168C7.56769 48.8905 7.62579 48.8577 7.6815 48.8194C7.73722 48.781 7.78816 48.7371 7.83512 48.6883L9.65222 46.8643C9.76763 46.7436 9.84802 46.6022 9.89339 46.44C10.9751 46.778 12.083 46.9474 13.2164 46.9466H47.7836C48.8827 46.9458 49.958 46.786 51.0103 46.4656C51.0437 46.5303 51.0843 46.591 51.1312 46.6469L53.1513 48.6748C53.1991 48.7211 53.25 48.7618 53.3057 48.7978C53.3614 48.8337 53.4195 48.8641 53.4808 48.8889C53.5421 48.9136 53.605 48.932 53.6702 48.944C53.7347 48.956 53.8008 48.9624 53.8668 48.9616C53.9329 48.9608 53.9982 48.9544 54.0626 48.9408C54.1271 48.9272 54.19 48.9081 54.2505 48.8825C54.3118 48.8569 54.3699 48.825 54.424 48.7882C54.4789 48.7515 54.5298 48.7099 54.5768 48.6628C54.623 48.6156 54.6651 48.5653 54.7018 48.5102C54.7384 48.455 54.7694 48.3967 54.7957 48.336C54.8212 48.2745 54.8403 48.2113 54.8538 48.1466C54.8665 48.0819 54.8737 48.0164 54.8745 47.9501C54.8753 47.8838 54.8689 47.8182 54.857 47.7527C54.845 47.688 54.8267 47.6241 54.8021 47.5626C54.7774 47.501 54.7471 47.4427 54.7113 47.3868C54.6755 47.3317 54.6349 47.2797 54.5887 47.2318L53.004 45.641C53.4514 45.4037 53.8812 45.1369 54.2927 44.8412C54.7034 44.5456 55.0934 44.2228 55.4611 43.8745C55.8288 43.5253 56.1718 43.153 56.4894 42.7575C56.807 42.362 57.0967 41.9465 57.3578 41.5119C57.6196 41.0764 57.8505 40.6258 58.051 40.1592C58.2516 39.6934 58.4195 39.2156 58.5556 38.7258C58.6918 38.2369 58.7936 37.7399 58.8629 37.2373C58.9313 36.734 58.9663 36.2282 58.9663 35.7201V26.3504C59.3969 26.2026 59.7726 25.9669 60.0918 25.6425C60.3847 25.3589 60.6099 25.0281 60.7675 24.651C60.9251 24.2747 61.0023 23.8816 60.9999 23.4733C60.9999 23.2719 60.9808 23.073 60.9418 22.8756C60.902 22.6783 60.8447 22.4873 60.7675 22.3012C60.6911 22.1158 60.5972 21.9392 60.4858 21.7722C60.3751 21.6053 60.2486 21.4503 60.1069 21.308C59.9652 21.1658 59.8108 21.0388 59.6445 20.9277C59.4781 20.8159 59.3022 20.7216 59.1176 20.6441C58.9321 20.5674 58.7419 20.5091 58.5453 20.4699C58.3487 20.4308 58.1505 20.4116 57.9499 20.4116ZM49.8164 10.2054H41.6836C41.6836 10.072 41.6899 9.93853 41.7027 9.8059C41.7162 9.67247 41.7353 9.54064 41.7616 9.40961C41.7878 9.27777 41.8197 9.14834 41.8587 9.0205C41.8969 8.89266 41.9422 8.76722 41.9932 8.64338C42.0441 8.52034 42.1006 8.39889 42.1635 8.28144C42.2264 8.16319 42.2948 8.04894 42.3689 7.93788C42.4429 7.82682 42.5217 7.71896 42.606 7.61589C42.6912 7.51282 42.7803 7.41375 42.8743 7.31947C42.969 7.22439 43.0669 7.1349 43.1704 7.05021C43.273 6.96552 43.3797 6.88562 43.4903 6.81132C43.6017 6.73701 43.7156 6.6683 43.8334 6.60518C43.9504 6.54206 44.0705 6.48533 44.1939 6.4342C44.3165 6.38306 44.4422 6.33832 44.5696 6.29917C44.6969 6.26002 44.8259 6.22806 44.9564 6.20169C45.0869 6.17613 45.2191 6.15615 45.3512 6.14337C45.4841 6.12979 45.617 6.12339 45.75 6.12339C45.8829 6.12339 46.0158 6.12979 46.1487 6.14337C46.2808 6.15615 46.413 6.17613 46.5435 6.20169C46.674 6.22806 46.803 6.26002 46.9303 6.29917C47.0577 6.33832 47.1834 6.38306 47.306 6.4342C47.4294 6.48533 47.5496 6.54206 47.6674 6.60518C47.7844 6.6683 47.899 6.73701 48.0096 6.81132C48.1202 6.88562 48.2269 6.96552 48.3296 7.05021C48.433 7.1349 48.5317 7.22439 48.6256 7.31947C48.7196 7.41375 48.8095 7.51282 48.8939 7.61589C48.9782 7.71896 49.057 7.82682 49.1311 7.93788C49.2051 8.04894 49.2735 8.16319 49.3364 8.28144C49.3993 8.39889 49.4558 8.52034 49.5067 8.64338C49.5585 8.76722 49.603 8.89266 49.6413 9.0205C49.6803 9.14834 49.7129 9.27777 49.7384 9.40961C49.7646 9.54064 49.7837 9.67247 49.7973 9.8059C49.81 9.93853 49.8164 10.072 49.8164 10.2054ZM12.2 21.4319C12.2 21.3648 12.2064 21.2984 12.2191 21.2329C12.2326 21.1674 12.2517 21.1035 12.2772 21.0412C12.3027 20.9797 12.3345 20.9205 12.3711 20.8646C12.4085 20.8095 12.4507 20.7575 12.4977 20.7104C12.5446 20.6633 12.5964 20.6209 12.6521 20.5834C12.707 20.5458 12.7659 20.5146 12.8272 20.4891C12.8893 20.4635 12.9529 20.4443 13.0182 20.4308C13.0835 20.418 13.1495 20.4116 13.2164 20.4116H21.35C21.4168 20.4116 21.4829 20.418 21.5482 20.4308C21.6134 20.4443 21.6771 20.4635 21.7392 20.4891C21.8005 20.5146 21.8594 20.5458 21.9151 20.5834C21.97 20.6209 22.0217 20.6633 22.0687 20.7104C22.1157 20.7575 22.1578 20.8095 22.1953 20.8646C22.2327 20.9205 22.2637 20.9797 22.2892 21.0412C22.3146 21.1035 22.3337 21.1674 22.3473 21.2329C22.36 21.2984 22.3664 21.3648 22.3664 21.4319V30.617H12.2V21.4319ZM12.2 32.6584H22.3664V34.6998H12.2V32.6584ZM2.0336 23.4733C2.0328 23.3359 2.05986 23.204 2.11399 23.0778C2.16811 22.9515 2.24452 22.8413 2.34401 22.7462C2.43713 22.6511 2.54458 22.5784 2.66716 22.5273C2.78973 22.4761 2.91708 22.4514 3.05 22.4522H10.1664V24.4936H3.05C2.98314 24.4936 2.91708 24.4872 2.85181 24.4744C2.78575 24.4608 2.72287 24.4416 2.66079 24.4161C2.5995 24.3905 2.5406 24.3585 2.48489 24.3218C2.42917 24.2842 2.37823 24.2419 2.33127 24.1948C2.28352 24.1476 2.24133 24.0957 2.20472 24.0398C2.16731 23.9846 2.13627 23.9255 2.1108 23.864C2.08533 23.8017 2.06543 23.7377 2.0527 23.6722C2.03996 23.6067 2.0336 23.5404 2.0336 23.4733ZM56.9335 35.7201C56.9328 36.0205 56.9184 36.3209 56.8882 36.6197C56.8587 36.9193 56.815 37.2166 56.7561 37.5114C56.6972 37.8062 56.6239 38.097 56.5372 38.3855C56.4496 38.6731 56.3493 38.9559 56.2339 39.2332C56.1193 39.5112 55.9912 39.7829 55.8503 40.0481C55.7086 40.3126 55.555 40.5707 55.3879 40.8208C55.2215 41.0708 55.0432 41.3121 54.853 41.5438C54.6636 41.7763 54.4622 41.9993 54.2505 42.2118C54.0388 42.4243 53.8167 42.6265 53.5851 42.8174C53.3535 43.0076 53.1139 43.1865 52.8648 43.3543C52.6156 43.5213 52.3586 43.6755 52.0943 43.8177C51.8308 43.9592 51.5602 44.0878 51.2833 44.2029C51.0063 44.3187 50.7253 44.4202 50.438 44.5073C50.1514 44.5951 49.8617 44.6679 49.568 44.727C49.2743 44.7861 48.9782 44.8301 48.6798 44.8596C48.3821 44.89 48.0828 44.9044 47.7836 44.9052H13.2164C12.9171 44.9044 12.6179 44.89 12.3202 44.8596C12.0217 44.8301 11.7256 44.7861 11.4319 44.727C11.1382 44.6679 10.8485 44.5951 10.562 44.5073C10.2746 44.4202 9.99368 44.3187 9.71669 44.2029C9.43971 44.0878 9.16909 43.9592 8.90564 43.8177C8.64139 43.6755 8.38431 43.5213 8.13518 43.3543C7.88606 43.1865 7.64648 43.0076 7.41487 42.8174C7.18325 42.6265 6.96119 42.4243 6.74947 42.2118C6.53776 41.9993 6.33639 41.7763 6.14695 41.5438C5.95673 41.3121 5.77844 41.0708 5.61209 40.8208C5.44495 40.5707 5.29133 40.3126 5.14966 40.0481C5.00878 39.7829 4.88063 39.5112 4.76602 39.2332C4.65061 38.9559 4.55032 38.6731 4.46277 38.3855C4.37601 38.097 4.30279 37.8062 4.24389 37.5114C4.18499 37.2166 4.14121 36.9193 4.11177 36.6197C4.08152 36.3209 4.06719 36.0205 4.0664 35.7201V26.535H10.1664V35.7201C10.1664 35.7872 10.1728 35.8535 10.1863 35.919C10.199 35.9845 10.2181 36.0484 10.2436 36.1108C10.2699 36.1723 10.3009 36.2314 10.3375 36.2873C10.3749 36.3425 10.4171 36.3944 10.4641 36.4415C10.5118 36.4887 10.5628 36.531 10.6185 36.5686C10.6742 36.6061 10.7323 36.6373 10.7944 36.6629C10.8557 36.6884 10.9193 36.7076 10.9846 36.7212C11.0507 36.734 11.1167 36.7404 11.1836 36.7404H23.3836C23.4496 36.7404 23.5165 36.734 23.5818 36.7212C23.647 36.7076 23.7107 36.6884 23.772 36.6629C23.8341 36.6373 23.893 36.6061 23.9479 36.5686C24.0036 36.531 24.0553 36.4887 24.1023 36.4415C24.1493 36.3944 24.1914 36.3425 24.2289 36.2873C24.2655 36.2314 24.2973 36.1723 24.3228 36.1108C24.3482 36.0484 24.3673 35.9845 24.3801 35.919C24.3936 35.8535 24.4 35.7872 24.4 35.7201V26.535H56.9335V35.7201ZM58.6559 24.1996C58.5628 24.2946 58.4554 24.3681 58.3328 24.4193C58.2102 24.4704 58.0829 24.4952 57.9499 24.4936H24.4V22.4522H57.9499C58.0168 22.4522 58.0829 22.4594 58.1481 22.4722C58.2142 22.4849 58.2771 22.5049 58.3392 22.5305C58.4004 22.556 58.4593 22.5872 58.5151 22.6248C58.5708 22.6615 58.6217 22.7039 58.6687 22.7518C58.7164 22.7989 58.7586 22.8501 58.7952 22.906C58.8326 22.9619 58.8637 23.0203 58.8891 23.0826C58.9146 23.1441 58.9345 23.208 58.9472 23.2743C58.96 23.3398 58.9663 23.4062 58.9663 23.4733C58.9671 23.6107 58.9401 23.7425 58.886 23.8688C58.8318 23.995 58.7554 24.1053 58.6559 24.1996Z" fill="#292727"/>
</svg>
