<svg width="49" height="49" viewBox="0 0 49 49" fill="none" xmlns="http://www.w3.org/2000/svg">
<path d="M48.0857 48.0857H0.914284V0.914284H48.0857V48.0857ZM48.5432 0H0.456823C0.204805 0 0 0.204805 0 0.456823V48.5432C0 48.7958 0.204805 49 0.456823 49H48.5432C48.7952 49 49 48.7958 49 48.5432V0.456823C49 0.204805 48.7952 0 48.5432 0Z" fill="black"/>
<path d="M3.4741 3.47398H22.7634V45.5259H3.4741V3.47398ZM3.01728 46.4402H23.2202C23.4729 46.4402 23.6777 46.2354 23.6777 45.9828V3.01715C23.6777 2.7645 23.4729 2.55969 23.2202 2.55969H3.01728C2.76462 2.55969 2.55981 2.7645 2.55981 3.01715V45.9828C2.55981 46.2354 2.76462 46.4402 3.01728 46.4402Z" fill="black"/>
<path d="M26.2365 3.47398H45.5258V45.5259H26.2365V3.47398ZM25.7797 46.4402H45.9827C46.2353 46.4402 46.4401 46.2354 46.4401 45.9828V3.01715C46.4401 2.7645 46.2353 2.55969 45.9827 2.55969H25.7797C25.5271 2.55969 25.3223 2.7645 25.3223 3.01715V45.9828C25.3223 46.2354 25.5271 46.4402 25.7797 46.4402Z" fill="black"/>
<path d="M18.4088 17.0014L8.21575 21.8012C7.98734 21.909 7.88908 22.1808 7.99691 22.4093C8.07474 22.5751 8.23935 22.6715 8.41098 22.6715C8.47606 22.6715 8.54178 22.6574 8.60494 22.6281L18.7986 17.8289C19.0264 17.7211 19.1246 17.4493 19.0168 17.2202C18.9096 16.9918 18.6372 16.8942 18.4088 17.0014Z" fill="black"/>
<path d="M17.9971 23.675L12.6678 26.1843C12.44 26.2922 12.3417 26.564 12.4496 26.7924C12.5268 26.9583 12.6914 27.0552 12.863 27.0552C12.9281 27.0552 12.9944 27.0412 13.0576 27.0119L18.387 24.5025C18.6154 24.3947 18.713 24.1223 18.6058 23.8938C18.498 23.6654 18.2256 23.5672 17.9971 23.675Z" fill="black"/>
<path d="M10.5772 27.1689L7.80437 28.4743C7.57596 28.5821 7.4777 28.8545 7.58553 29.0829C7.66337 29.2482 7.82798 29.3452 7.9996 29.3452C8.06468 29.3452 8.13104 29.3311 8.19356 29.3018L10.9664 27.9964C11.1948 27.8886 11.2924 27.6168 11.1852 27.3877C11.0774 27.1593 10.8056 27.0617 10.5772 27.1689Z" fill="black"/>
<path d="M41.4462 5.52849L31.2532 10.3277C31.0242 10.4355 30.9265 10.7079 31.0337 10.9364C31.1122 11.1022 31.2762 11.1986 31.4478 11.1986C31.5129 11.1986 31.5792 11.1845 31.6424 11.1552L41.8354 6.356C42.0638 6.24818 42.1614 5.97574 42.0543 5.74733C41.9464 5.51892 41.674 5.4213 41.4462 5.52849Z" fill="black"/>
<path d="M41.0349 12.2021L35.7055 14.7114C35.4771 14.8193 35.3788 15.0911 35.4867 15.3195C35.5645 15.4854 35.7291 15.5823 35.9007 15.5823C35.9658 15.5823 36.0315 15.5683 36.0947 15.5383L41.4241 13.029C41.6525 12.9218 41.7507 12.6494 41.6429 12.4209C41.5357 12.1925 41.2627 12.0943 41.0349 12.2021Z" fill="black"/>
<path d="M33.6143 15.696L30.8421 17.0014C30.613 17.1092 30.5154 17.3816 30.6226 17.61C30.7011 17.7753 30.865 17.8723 31.0367 17.8723C31.1024 17.8723 31.1681 17.8582 31.2313 17.8289L34.0041 16.5235C34.2325 16.4157 34.3301 16.1432 34.2229 15.9148C34.1151 15.6864 33.8427 15.5888 33.6143 15.696Z" fill="black"/>
</svg>
