<svg width="49" height="49" viewBox="0 0 49 49" fill="none" xmlns="http://www.w3.org/2000/svg">
<path d="M38.7527 12.0212C38.494 11.5997 38.2058 11.1775 37.8991 10.7841L36.998 11.5037C37.2762 11.8585 37.5349 12.2326 37.765 12.6161L38.7527 12.0212Z" fill="black"/>
<path d="M38.5898 21.4675L39.6729 21.8703C40.7086 19.0699 40.6226 16.0301 39.4335 13.3064L38.3784 13.7666C39.4428 16.2215 39.5195 18.9552 38.5898 21.4675Z" fill="black"/>
<mask id="mask0_140_949" style="mask-type:luminance" maskUnits="userSpaceOnUse" x="0" y="0" width="49" height="49">
<path d="M0 0H48.4238V49H0V0Z" fill="white"/>
</mask>
<g mask="url(#mask0_140_949)">
<path d="M47.7002 37.7797H47.2113C47.8729 37.0987 48.2757 36.1684 48.2757 35.152C48.2757 34.8359 48.0163 34.5771 47.7002 34.5771H35.2908C36.9881 33.9342 38.59 33.0232 40.0573 31.8534C47.7575 25.7351 49.0427 14.4955 42.9244 6.79519C36.806 -0.905744 25.5664 -2.1909 17.8661 3.92743C14.2121 6.82387 11.8725 10.9761 11.2776 15.5985C10.7408 19.7028 11.6324 23.7977 13.7906 27.269L2.14815 25.447C1.99476 25.4283 1.84137 25.457 1.71665 25.553C1.59194 25.639 1.51524 25.7731 1.48657 25.9265L0.700267 30.9517C0.671589 31.1438 0.642245 31.3352 0.632908 31.5179H0.575553C0.258765 31.5179 0 31.7767 0 32.0928V38.0484C0 42.172 2.8004 45.6533 6.59785 46.6984V48.9713H18.5277V48.5298H44.497C46.5784 48.5298 48.2757 46.8324 48.2757 44.7516C48.2757 44.4349 48.0163 44.1761 47.7002 44.1761H47.2113C47.8729 43.4952 48.2757 42.5655 48.2757 41.5484C48.2757 41.2323 48.0163 40.9735 47.7002 40.9735H47.2113C47.8729 40.2926 48.2757 39.3623 48.2757 38.3459C48.2757 38.0291 48.0163 37.7797 47.7002 37.7797ZM47.0573 35.7275C46.7985 36.8973 45.7441 37.7797 44.497 37.7797H25.2023V35.7275H28.9617H28.971H47.0573ZM22.7853 28.6789C21.4142 27.8926 20.225 26.8668 19.228 25.6197C14.9604 20.2496 15.8614 12.4147 21.2321 8.15637C23.8311 6.09492 27.0816 5.16457 30.3809 5.53871C33.6795 5.91285 36.6333 7.55281 38.6954 10.1511C40.7569 12.7501 41.6872 16.0014 41.3131 19.3C40.9389 22.5992 39.2996 25.553 36.7006 27.6145C33.4014 30.2328 28.9424 30.9997 24.9528 29.6479L24.9622 29.5899C24.9815 29.4365 24.9528 29.2831 24.8568 29.1584C24.7608 29.0337 24.6367 28.957 24.4827 28.9283L22.7853 28.6789ZM18.5851 4.82911C25.7872 -0.896407 36.3072 0.312053 42.0227 7.51413C47.7482 14.7162 46.5397 25.2362 39.3377 30.9517C36.3552 33.3206 32.7685 34.5771 28.971 34.5771H28.9617H25.2023V32.0928C25.2023 31.786 24.9622 31.5366 24.6554 31.5179L24.7708 30.8077C26.1326 31.2492 27.5518 31.4699 28.971 31.4699C29.6233 31.4699 30.2849 31.4219 30.9371 31.3259C33.296 30.9804 35.5302 30.012 37.4103 28.5161C40.2487 26.2626 42.042 23.0307 42.4542 19.4247C42.867 15.8193 41.8499 12.2706 39.5964 9.43219C37.3429 6.59378 34.111 4.80043 30.5056 4.38761C26.8996 3.97545 23.3516 4.99184 20.5125 7.24536C14.6536 11.9065 13.6659 20.4604 18.3263 26.3293C18.8919 27.0389 19.5154 27.6911 20.2057 28.2667L15.3345 27.4997C10.2039 20.269 11.5944 10.3812 18.5851 4.82911ZM1.85071 31.1245L2.55097 26.6654L23.7444 29.9834L23.495 31.5179H1.79335C1.81269 31.3932 1.82203 31.2585 1.85071 31.1245ZM1.15111 38.0484V32.6684H24.0512V38.0484C24.0512 42.3641 20.5418 45.8734 16.2262 45.8734H8.97609C4.66044 45.8734 1.15111 42.3641 1.15111 38.0484ZM7.74895 46.9378C8.1511 46.9958 8.56393 47.0245 8.97609 47.0245H16.2355C16.619 47.0245 17.0031 46.9958 17.3766 46.9478V47.8108H7.74895V46.9378ZM44.497 47.3793H18.5277V46.7271C19.6015 46.4396 20.5992 45.9601 21.4715 45.3272H47.0573C46.7985 46.5063 45.7441 47.3793 44.497 47.3793ZM22.776 44.1761C23.3516 43.5625 23.8404 42.8723 24.2239 42.124H47.0573C46.7985 43.3038 45.7441 44.1761 44.497 44.1761H22.776ZM24.7134 40.9829C24.9435 40.3306 25.0869 39.6404 25.1636 38.9308H47.0573C46.7985 40.1005 45.7441 40.9829 44.497 40.9829H24.7134Z" fill="black"/>
</g>
<path d="M3.98948 37.5303V34.337H2.83838V37.5303C2.83838 39.2662 3.64402 40.9349 5.11124 42.22L5.86887 41.357C4.66041 40.2926 3.98948 38.9401 3.98948 37.5303Z" fill="black"/>
<path d="M6.38721 43.1404C6.72267 43.3418 7.06813 43.5239 7.43227 43.678L7.89245 42.6229C7.57633 42.4788 7.25954 42.3254 6.9721 42.1527L6.38721 43.1404Z" fill="black"/>
</svg>
