<svg width="31" height="31" viewBox="0 0 31 31" fill="none" xmlns="http://www.w3.org/2000/svg">
<path fill-rule="evenodd" clip-rule="evenodd" d="M15.4999 18.3869L27.0496 29.9366C27.4346 30.3085 27.9504 30.5143 28.4857 30.5096C29.021 30.505 29.5331 30.2903 29.9116 29.9117C30.2902 29.5332 30.5049 29.0211 30.5095 28.4858C30.5142 27.9505 30.3084 27.4348 29.9365 27.0497L18.3868 15.5L29.9365 3.95027C30.3084 3.56521 30.5142 3.04948 30.5095 2.51416C30.5049 1.97884 30.2902 1.46677 29.9116 1.08823C29.5331 0.709684 29.021 0.494963 28.4857 0.490312C27.9504 0.48566 27.4346 0.691448 27.0496 1.06335L15.4999 12.6131L3.95015 1.06335C3.56336 0.700642 3.05062 0.502642 2.52044 0.511251C1.99025 0.519861 1.48421 0.734404 1.1094 1.10948C0.734584 1.48456 0.520399 1.99075 0.512165 2.52094C0.503931 3.05114 0.702293 3.56373 1.06528 3.95027L12.6129 15.5L1.06324 27.0497C0.868238 27.238 0.7127 27.4633 0.605698 27.7124C0.498696 27.9615 0.442374 28.2294 0.440018 28.5005C0.437663 28.7716 0.48932 29.0404 0.591977 29.2913C0.694634 29.5423 0.846234 29.7702 1.03793 29.9619C1.22963 30.1536 1.45759 30.3052 1.7085 30.4079C1.95941 30.5105 2.22826 30.5622 2.49935 30.5598C2.77044 30.5575 3.03835 30.5011 3.28744 30.3941C3.53653 30.2871 3.76182 30.1316 3.95015 29.9366L15.4999 18.3869Z" fill="black"/>
</svg>
