<svg width="46" height="23" viewBox="0 0 46 23" fill="none" xmlns="http://www.w3.org/2000/svg">
<rect width="46" height="23" fill="url(#paint0_linear_87_10)"/>
<path d="M13.6878 3.35501L6.23872 10.9968C6.10789 11.131 6.03467 11.311 6.03467 11.4984C6.03467 11.6859 6.10789 11.8659 6.23872 12.0001L13.6878 19.6448C13.7488 19.7074 13.8217 19.7571 13.9021 19.7911C13.9826 19.825 14.0691 19.8425 14.1565 19.8425C14.2438 19.8425 14.3303 19.825 14.4108 19.7911C14.4913 19.7571 14.5642 19.7074 14.6251 19.6448C14.7505 19.5164 14.8207 19.3441 14.8207 19.1646C14.8207 18.9852 14.7505 18.8129 14.6251 18.6845L7.62016 11.4984L14.6251 4.31382C14.75 4.18552 14.82 4.01351 14.82 3.83442C14.82 3.65533 14.75 3.48331 14.6251 3.35501C14.5642 3.29242 14.4913 3.24267 14.4108 3.2087C14.3303 3.17473 14.2438 3.15723 14.1565 3.15723C14.0691 3.15723 13.9826 3.17473 13.9021 3.2087C13.8217 3.24267 13.7488 3.29242 13.6878 3.35501Z" fill="white"/>
<path d="M32.3122 3.35501L39.7613 10.9968C39.8921 11.131 39.9653 11.311 39.9653 11.4984C39.9653 11.6859 39.8921 11.8659 39.7613 12.0001L32.3122 19.6448C32.2512 19.7074 32.1783 19.7571 32.0979 19.7911C32.0174 19.825 31.9309 19.8425 31.8435 19.8425C31.7562 19.8425 31.6697 19.825 31.5892 19.7911C31.5087 19.7571 31.4358 19.7074 31.3749 19.6448C31.2495 19.5164 31.1793 19.3441 31.1793 19.1646C31.1793 18.9852 31.2495 18.8129 31.3749 18.6845L38.3798 11.4984L31.3749 4.31382C31.25 4.18552 31.18 4.01351 31.18 3.83442C31.18 3.65533 31.25 3.48331 31.3749 3.35501C31.4358 3.29242 31.5087 3.24267 31.5892 3.2087C31.6697 3.17473 31.7562 3.15723 31.8435 3.15723C31.9309 3.15723 32.0174 3.17473 32.0979 3.2087C32.1783 3.24267 32.2512 3.29242 32.3122 3.35501Z" fill="white"/>
<defs>
<linearGradient id="paint0_linear_87_10" x1="7.67835" y1="-1.00457e-07" x2="27.166" y2="32.2923" gradientUnits="userSpaceOnUse">
<stop stop-color="#2073EF"/>
<stop offset="1" stop-color="#003882"/>
</linearGradient>
</defs>
</svg>
